<svg width="11" height="11" viewBox="0 0 11 11" fill="none" xmlns="http://www.w3.org/2000/svg">
    <path
        d="M10.8689 10.7323L10.6401 10.5104C10.5271 10.3587 10.4069 10.2243 10.2758 10.1019L10.2735 10.1001C10.139 9.97572 9.99926 9.85744 9.85424 9.74528C9.73804 9.66399 9.57831 9.56603 9.37504 9.45143C9.20795 9.37487 9.07734 9.24055 9.00663 9.07368L9.00483 9.0691L8.98321 9.05809C9.07869 9.04847 9.16607 9.03059 9.24984 9.00538L9.23948 9.00813L9.49619 8.93615C9.60248 8.90223 9.72543 8.88022 9.85289 8.87518H9.85559C9.98981 8.86968 10.1164 8.84768 10.2371 8.81146L10.2258 8.81421C10.2841 8.79954 10.344 8.78288 10.4055 8.76424C10.4671 8.7456 10.5197 8.72894 10.5636 8.71427V8.6368C10.52 8.57048 10.4674 8.49469 10.4055 8.40942C10.3465 8.32782 10.2803 8.25676 10.206 8.19487L10.2037 8.19304C10.0149 8.02312 9.81926 7.85869 9.61689 7.69977C9.43855 7.55812 9.23633 7.41371 9.02645 7.27985L8.99582 7.26151C8.88503 7.18725 8.75803 7.11848 8.62426 7.0621L8.60895 7.05659C8.47444 7.00097 8.34188 6.94 8.21127 6.87368C8.16758 6.85168 8.11669 6.83242 8.06399 6.81913L8.05904 6.81821C8.00635 6.80721 7.96131 6.7797 7.92843 6.74074L7.92798 6.74028C7.86583 6.65684 7.81133 6.56195 7.7681 6.4611L7.76449 6.45193C7.72096 6.34832 7.67382 6.24884 7.62308 6.15349C7.51409 5.93894 7.4087 5.72089 7.30691 5.49931C7.20513 5.27774 7.10739 5.05586 7.01372 4.83367C6.94856 4.68575 6.88866 4.53799 6.83402 4.39037C6.77367 4.22809 6.70566 4.08918 6.62639 3.95853L6.63225 3.96908C6.43769 3.63167 6.24357 3.34378 6.0328 3.0701L6.04541 3.08752C5.83688 2.8198 5.6207 2.5805 5.38831 2.35862L5.3847 2.35541C5.15546 2.13628 4.90866 1.92723 4.64969 1.73378L4.62762 1.71773C4.3586 1.51877 4.06435 1.32287 3.74488 1.13003C3.61652 1.05301 3.46745 0.990206 3.31027 0.949864L3.29856 0.947114L2.79729 0.819671L2.514 0.797666C2.41972 0.790331 2.32529 0.786664 2.23072 0.786664C2.16406 0.750906 2.10686 0.708272 2.05642 0.658762C2.00688 0.610627 1.95328 0.565243 1.89744 0.523526L1.89293 0.520317C1.62046 0.358491 1.30384 0.210419 0.972814 0.0939779L0.934532 0.0820588C0.847609 0.0302563 0.743122 0 0.631878 0C0.552612 0 0.476499 0.0155866 0.40714 0.0435507L0.411194 0.0421754C0.240051 0.111398 0.109442 0.252136 0.0531445 0.427256L0.0517933 0.43184C0.0189158 0.51069 0 0.601917 0 0.698187C0 0.866889 0.058549 1.02138 0.156281 1.14195L0.15538 1.14057C0.318717 1.36214 0.443921 1.53635 0.530994 1.66318C0.596149 1.75211 0.663405 1.84456 0.732763 1.94053C0.796266 2.02671 0.852563 2.12528 0.898051 2.22934L0.901654 2.23897C0.926875 2.29352 0.948944 2.35862 0.965157 2.42555L0.966508 2.43288C0.98092 2.49584 0.999086 2.5643 1.021 2.63826C1.08616 2.80818 1.14786 2.98239 1.20611 3.16087C1.26961 3.3557 1.33987 3.52073 1.42139 3.67797L1.41283 3.65964C1.45637 3.74093 1.50005 3.82039 1.54389 3.89802C1.58773 3.97565 1.63487 4.05144 1.68531 4.1254C1.71458 4.17033 1.75152 4.20746 1.79385 4.23634L1.7952 4.23726C1.83979 4.27026 1.86906 4.32207 1.87132 4.38075C1.81997 4.45776 1.78529 4.55036 1.77358 4.64984L1.77313 4.65259C1.75737 4.76858 1.73485 4.87172 1.70423 4.9712L1.70783 4.95745C1.60739 5.26276 1.54975 5.61484 1.54975 5.9802C1.54975 6.09848 1.5556 6.21492 1.56776 6.32998L1.56641 6.31577C1.59343 6.75495 1.72359 7.15837 1.93212 7.50769L1.92581 7.49623C2.01453 7.63146 2.10956 7.74928 2.2145 7.85701C2.29017 7.9432 2.40006 7.99729 2.52256 7.99729C2.59102 7.99729 2.65587 7.98033 2.71262 7.95007L2.71037 7.95099C2.868 7.89323 2.98014 7.74653 2.98825 7.57187V7.57095C3.00987 7.35366 3.04229 7.15928 3.08688 6.96949L3.08103 7.00021C3.09184 6.97133 3.09814 6.93832 3.09814 6.90348C3.09814 6.8966 3.09769 6.88973 3.09724 6.88285V6.88377C3.09364 6.85045 3.1136 6.81897 3.15714 6.78933V6.81134C3.20068 6.91494 3.24602 7.01839 3.29315 7.12169C3.34029 7.22499 3.38923 7.32844 3.43998 7.43205C3.57284 7.63788 3.71381 7.81759 3.86874 7.98308L3.86738 7.98171C4.02276 8.15224 4.19211 8.30535 4.37496 8.44059L4.38487 8.44747C4.48035 8.52173 4.56412 8.60196 4.63978 8.68952L4.64158 8.69135C4.71274 8.77662 4.79786 8.84676 4.89379 8.89948L4.8983 8.90177V8.89077H4.91992C4.90235 8.85089 4.87398 8.8188 4.83885 8.79679L4.83795 8.79633C4.80237 8.77616 4.77174 8.75599 4.74292 8.73399L4.74517 8.73536C4.68001 8.66904 4.61276 8.59508 4.5434 8.51348C4.47404 8.43188 4.41054 8.35425 4.35289 8.2806C4.20036 8.06605 4.05489 7.84188 3.91648 7.60808C3.77806 7.37429 3.6473 7.13667 3.5242 6.89523C3.46595 6.77695 3.40965 6.65501 3.35531 6.5294C3.30096 6.40379 3.24827 6.28185 3.19722 6.16357C3.17516 6.11819 3.15984 6.06593 3.15399 6.01046V6.00817C3.15129 5.95545 3.12156 5.91006 3.07832 5.88668L3.07742 5.88623C3.02293 5.98066 2.96258 6.06226 2.89367 6.13607L2.89412 6.13561C2.82251 6.21217 2.76396 6.30248 2.72208 6.4015L2.71982 6.40746C2.65632 6.56424 2.60993 6.74624 2.58967 6.93649L2.58877 6.9452C2.56715 7.1411 2.54538 7.3425 2.52346 7.54941L2.50184 7.56041L2.49103 7.57141C2.37394 7.54711 2.27755 7.47101 2.22531 7.36833L2.22441 7.36603C2.16976 7.25876 2.12082 7.15332 2.07759 7.04972C1.96589 6.7577 1.89654 6.41984 1.88708 6.06685V6.06272C1.88303 6.00679 1.88122 5.94124 1.88122 5.87568C1.88122 5.57037 1.92851 5.27606 2.01589 5.00008L2.01048 5.02025C2.0321 4.93896 2.07924 4.80204 2.1519 4.6095C2.22456 4.41696 2.23912 4.28386 2.19559 4.21021C2.17307 4.13457 2.13118 4.07085 2.07624 4.02225L2.07579 4.0218C2.02084 3.9732 1.97085 3.92232 1.92491 3.86822L1.92356 3.86639C1.87282 3.79182 1.82388 3.71236 1.77674 3.62801C1.7296 3.54365 1.68786 3.46053 1.65153 3.37862C1.57722 3.2035 1.50111 2.98391 1.43805 2.75837L1.42814 2.71757C1.35653 2.45855 1.27682 2.23942 1.18224 2.02855L1.19395 2.05789C1.14396 1.94236 1.08586 1.84243 1.0183 1.7512L1.021 1.75487C0.947743 1.65523 0.882288 1.56095 0.82464 1.47201C0.751378 1.37605 0.678718 1.2836 0.606657 1.19467C0.533246 1.10436 0.467941 1.00258 0.414797 0.893478L0.410744 0.884309C0.389125 0.839842 0.37021 0.788039 0.357149 0.734403L0.356248 0.72936C0.351294 0.713315 0.348592 0.69452 0.348592 0.675724C0.348592 0.638133 0.359401 0.602834 0.378316 0.573494L0.377866 0.574411C0.38282 0.548739 0.39453 0.526276 0.410744 0.507939C0.428308 0.491894 0.450827 0.479975 0.475147 0.474932H0.476048C0.51433 0.449719 0.560719 0.43459 0.611161 0.43459C0.648993 0.43459 0.685473 0.443301 0.71745 0.458887L0.716099 0.458429C0.814731 0.486851 0.894448 0.515274 0.972363 0.547822L0.95615 0.541863C1.09397 0.601153 1.22112 0.658457 1.33762 0.713774C1.47183 0.778871 1.58623 0.847635 1.69432 0.924192L1.68621 0.918691C1.74446 0.955671 1.80256 0.996319 1.86051 1.04063C1.91845 1.08495 1.98016 1.12942 2.04561 1.17404H2.19829C2.31449 1.17404 2.43789 1.17969 2.5685 1.191C2.70046 1.20154 2.82251 1.22676 2.93871 1.26618L2.9279 1.26297C3.14453 1.32853 3.33054 1.406 3.50708 1.49906L3.48862 1.49035C3.66667 1.58265 3.83556 1.6806 3.99529 1.7842C4.26056 1.95245 4.48981 2.12482 4.70554 2.31323L4.69788 2.30681C4.92307 2.50302 5.12754 2.70427 5.3194 2.91698L5.3239 2.92248C5.51126 3.13061 5.69006 3.35662 5.85355 3.59362L5.86751 3.61517C6.01793 3.83155 6.16971 4.08185 6.30617 4.34132L6.32509 4.38029C6.36157 4.45088 6.3985 4.53753 6.43048 4.62601L6.43543 4.64113C6.46456 4.7261 6.49713 4.8132 6.53316 4.90244C6.61303 5.08734 6.6986 5.27392 6.78988 5.46218C6.88116 5.65044 6.96673 5.83351 7.04659 6.01138L7.28619 6.54361C7.37041 6.72973 7.46454 6.89018 7.57398 7.03826L7.56903 7.03138C7.66046 7.13086 7.78251 7.20054 7.91942 7.22484L7.92303 7.2253C8.08877 7.26747 8.22838 7.31515 8.36349 7.37154L8.34233 7.36374C8.40673 7.39354 8.4896 7.42517 8.57472 7.45314L8.59274 7.45818C8.68822 7.48798 8.77109 7.5274 8.8472 7.57691L8.84315 7.57462C8.99042 7.65851 9.11518 7.74103 9.23407 7.83088L9.22462 7.824C9.34802 7.9163 9.47142 8.0034 9.59483 8.08531C9.65307 8.12962 9.75081 8.19426 9.88802 8.27922C10.0252 8.36419 10.0979 8.44365 10.106 8.51761C10.0547 8.51577 9.99386 8.5144 9.93306 8.5144C9.71147 8.5144 9.49349 8.52907 9.28001 8.55749L9.30523 8.55474C9.06383 8.58775 8.84495 8.6478 8.63912 8.73353L8.65714 8.72711C8.60625 8.74957 8.54545 8.7702 8.4824 8.78625L8.47384 8.78808C8.40988 8.79771 8.36034 8.84997 8.35404 8.91506C8.38151 8.94991 8.40358 8.99071 8.41844 9.03471L8.41934 9.03747C8.43466 9.08423 8.45312 9.12457 8.47564 9.16216L8.47429 9.15941C8.52788 9.25614 8.58553 9.33957 8.65038 9.41659L8.64858 9.4143C8.71209 9.49406 8.7837 9.56328 8.86296 9.62242L8.86611 9.62471C8.93938 9.684 9.01564 9.74497 9.09491 9.80763C9.16742 9.86539 9.24939 9.92223 9.33451 9.97358L9.34532 9.97954C9.47322 10.0593 9.62185 10.1354 9.77678 10.1991L9.79749 10.2065C9.96594 10.2752 10.1105 10.355 10.2447 10.4499L10.2375 10.4448C10.3249 10.4965 10.412 10.5538 10.4987 10.6168C10.5855 10.6797 10.669 10.7407 10.7491 10.7997C10.782 10.8327 10.8108 10.8693 10.8352 10.9092L10.8365 10.9115C10.8775 10.9592 10.9342 10.9917 10.9986 11H11V10.978C10.9604 10.9473 10.9311 10.9046 10.9171 10.8556L10.9167 10.8538C10.9054 10.807 10.8888 10.7662 10.8662 10.7286L10.8671 10.7304L10.8689 10.7323ZM2.50274 1.92815C2.44449 1.92815 2.39 1.92999 2.33926 1.93365C2.28746 1.93732 2.23927 1.94695 2.19378 1.96253L2.19784 1.96116V1.97216H2.21946C2.24858 2.01648 2.28521 2.06629 2.32935 2.12161C2.37349 2.17693 2.41342 2.23056 2.44915 2.28252L2.62344 2.64834L2.64506 2.63734C2.69596 2.59975 2.73514 2.54932 2.75856 2.49019L2.75946 2.48789C2.78288 2.42417 2.79639 2.34991 2.79639 2.27289C2.79639 2.26464 2.79639 2.25639 2.79594 2.24813V2.24951C2.77567 2.22934 2.75901 2.2055 2.7473 2.17891L2.74685 2.17754L2.71037 2.0941C2.6865 2.05559 2.65317 2.02534 2.61399 2.00608L2.61264 2.00563C2.5703 1.985 2.53427 1.95887 2.50274 1.92815Z"
        fill="black" />
</svg>