<svg width="13" height="13" viewBox="0 0 13 13" fill="none" xmlns="http://www.w3.org/2000/svg">
    <g clip-path="url(#clip0_4_238)">
        <path
            d="M0 9.75C0 10.1331 0.152182 10.5005 0.423068 10.7714C0.693954 11.0423 1.06135 11.1944 1.44444 11.1944H11.5556C11.9386 11.1944 12.306 11.0423 12.5769 10.7714C12.8478 10.5005 13 10.1331 13 9.75V8.30556H0V9.75Z"
            fill="#FFCD05" />
        <path d="M0 5.05556H13V8.30556H0V5.05556Z" fill="#ED1F24" />
        <path
            d="M11.5556 1.80556H1.44444C1.06135 1.80556 0.693954 1.95774 0.423068 2.22863C0.152182 2.49951 0 2.86691 0 3.25L0 5.05556H13V3.25C13 2.86691 12.8478 2.49951 12.5769 2.22863C12.306 1.95774 11.9386 1.80556 11.5556 1.80556Z"
            fill="#141414" />
    </g>
    <defs>
        <clipPath id="clip0_4_238">
            <rect width="13" height="13" fill="white" />
        </clipPath>
    </defs>
</svg>