<svg width="14" height="13" viewBox="0 0 14 13" fill="none" xmlns="http://www.w3.org/2000/svg">
    <g clip-path="url(#clip0_4_140)">
        <path fill-rule="evenodd" clip-rule="evenodd"
            d="M6.65574 -0.187499C3.46229 -0.187499 0.875 2.35563 0.875 5.49431C0.875 8.00494 2.53159 10.1337 4.8282 10.8853C5.11724 10.9373 5.22294 10.7618 5.22294 10.6114C5.22294 10.4766 5.21799 10.1191 5.21468 9.64456C3.60681 9.98825 3.26823 8.88325 3.26823 8.88325C3.00479 8.22675 2.62574 8.05206 2.62574 8.05206C2.10134 7.69944 2.66538 7.70675 2.66538 7.70675C3.24593 7.74738 3.55148 8.29175 3.55148 8.29175C4.06679 9.16113 4.90417 8.90925 5.23368 8.76462C5.2857 8.39738 5.43518 8.14713 5.60034 8.00494C4.31702 7.86194 2.96763 7.37444 2.96763 5.19694C2.96763 4.577 3.19308 4.06919 3.56222 3.67269C3.50276 3.52888 3.30456 2.95119 3.62002 2.16956C3.62002 2.16956 4.10396 2.016 5.2089 2.75131C5.68048 2.62491 6.16698 2.56043 6.65574 2.55956C7.1471 2.562 7.64177 2.62456 8.1034 2.75131C9.20669 2.016 9.69145 2.16875 9.69145 2.16875C10.0069 2.95119 9.80872 3.52888 9.74926 3.67188C10.1192 4.07 10.3438 4.577 10.3438 5.19694C10.3438 7.37931 8.99116 7.86031 7.7037 8.00006C7.91098 8.17556 8.09597 8.5225 8.09597 9.05306C8.09597 9.81194 8.08853 10.4246 8.08853 10.6114C8.08853 10.7634 8.19341 10.9397 8.48658 10.8844C9.63643 10.5072 10.6366 9.78372 11.3454 8.81638C12.0543 7.84905 12.436 6.68686 12.4365 5.49431C12.4356 3.98668 11.8261 2.54113 10.742 1.47561C9.65794 0.410083 8.18808 -0.188146 6.65574 -0.187499Z"
            fill="#161514" />
    </g>
    <defs>
        <clipPath id="clip0_4_140">
            <rect width="13.2131" height="13" fill="white" transform="translate(0.0491943)" />
        </clipPath>
    </defs>
</svg>