<svg width="15" height="15" viewBox="0 0 15 15" fill="none" xmlns="http://www.w3.org/2000/svg">
    <g clip-path="url(#clip0_4_167)">
        <path
            d="M14.5078 1.43319C14.4574 1.10272 14.1844 0.93866 14.1844 0.93866C13.7836 0.98905 11.4703 1.99218 11.4703 1.99218L11.3941 2.64257L6.3996 7.53514C6.35038 7.58436 6.35741 7.66757 6.41483 7.72147L7.20468 8.51132C7.26561 8.56288 7.35116 8.56288 7.39569 8.51014C7.39569 8.51014 7.82343 8.36132 8.32968 7.79296C8.66718 7.41444 8.57226 7.19413 8.74921 6.99608C10.0746 5.51249 11.918 3.44999 12.0621 3.28827L12.6726 3.30585C12.7805 3.30936 12.8812 3.25194 12.934 3.15819C13.0898 2.87928 13.4285 2.29218 13.6594 2.04374C13.8598 1.82811 13.9383 1.85624 14.2043 1.77889C14.4644 1.70155 14.5465 1.6828 14.5078 1.43319Z"
            fill="#2F7889" />
        <path
            d="M6.65389 7.27735C6.65389 7.27735 6.22967 6.79453 5.79725 6.98906C5.21952 7.24922 5.61444 7.89727 4.84217 8.16563C3.99842 8.45742 3.40077 9.01406 3.68905 9.68906C3.99842 10.4133 5.23358 10.4543 5.29217 12.3117C5.3203 13.2012 5.95545 13.1789 6.2367 12.8871C6.73006 12.3727 6.68084 10.7813 7.19061 10.2141C7.70038 9.64688 8.96366 9.79219 9.42186 8.73516C9.42186 8.73516 8.6367 9.52383 7.63944 8.7457C7.16717 8.37656 7.17303 7.76133 7.17303 7.76133L6.65389 7.27735Z"
            fill="#FFFDE7" />
        <path
            d="M7.87968 6.36327C7.87968 6.36327 7.93124 6.416 7.78124 6.2871C7.46015 6.01171 7.24101 6.98553 6.74413 6.49218C6.08671 5.93671 6.28241 5.44569 6.79218 4.89725C7.04179 4.62889 7.1496 4.50468 7.10038 4.19178C7.05937 3.92577 6.81093 3.75702 6.47812 3.75702C6.15351 3.77577 5.57577 4.20936 5.02031 5.03436C4.17538 6.28827 4.57616 6.95389 3.69609 7.62421C2.81718 8.29335 0.875383 8.53007 0.741789 10.2269C0.665617 11.2008 1.11796 11.7562 1.69687 12.4676C2.09765 12.9609 3.06093 13.8129 3.77812 14.1715C4.49531 14.5301 5.38476 14.7281 6.11835 14.2394C7.74257 13.1578 7.49999 12.0586 7.77421 11.3473C8.08945 10.5316 8.87109 10.8047 9.67265 10.0394C10.268 9.50741 10.4004 8.97069 10.3641 8.61093C10.3254 8.24179 9.9996 7.85624 9.69374 7.90546C9.57656 7.85038 9.70546 8.19491 9.60585 8.39647C9.3539 8.90858 8.9496 9.20741 8.41406 8.78553C7.98163 8.44452 8.48906 7.5703 8.48906 7.5703L8.1539 7.16952L7.87968 6.36327Z"
            fill="#C62828" />
        <path
            d="M7.6289 6.11249C7.6289 6.11249 7.68047 6.16522 7.53047 6.03631C7.20937 5.76092 6.54961 6.64452 6.0539 6.15116C5.59336 5.69295 6.25898 4.9828 6.75 4.50467C7.17187 4.17069 6.76992 3.74061 6.48047 3.75702C6.15586 3.77577 5.32734 3.95858 4.77187 4.78358C3.92695 6.03749 4.32773 6.70311 3.44765 7.37342C2.73984 7.91131 1.61133 8.11874 0.899998 9.06678C0.721873 9.30467 0.581248 9.416 0.492186 9.97616C0.416014 10.95 0.868358 11.5055 1.44726 12.2168C1.84805 12.7101 2.81133 13.5621 3.52851 13.9207C4.2457 14.2793 5.04023 14.4773 5.775 13.9887C7.39922 12.907 7.10859 11.6765 7.38281 10.964C7.69805 10.1484 8.69062 10.4109 9.49219 9.64686C10.0219 9.14178 10.152 8.71991 10.1156 8.36014C10.0898 8.10233 9.9082 7.98631 9.77226 7.92303C9.65508 7.86795 9.45703 7.94413 9.35742 8.14686C9.10547 8.65897 8.70117 8.9578 8.16562 8.53592C7.7332 8.19491 8.17851 7.22108 8.17851 7.22108L7.6289 6.11249Z"
            fill="#F44336" />
        <path
            d="M6.41485 7.09687C6.32696 7.03007 5.85587 6.73124 5.44688 7.10742C5.00626 7.51289 5.36485 8.06718 4.66759 8.17382C3.78517 8.30976 3.26134 8.89804 3.54962 9.57304C3.85899 10.2973 5.23477 10.4508 5.29337 12.3094C5.32149 13.1988 5.94376 13.1625 6.2379 12.8848C6.91876 12.2402 6.52501 10.8164 7.19181 10.2117C7.7672 9.69023 8.63907 9.97499 9.05626 9.24492C9.13009 9.11601 9.13478 9.00234 8.95782 9.07617C8.63204 9.2121 8.2254 9.28124 7.78126 8.84648C7.41915 8.49023 7.4836 7.99687 7.4836 7.99687C7.4836 7.99687 6.49806 7.16015 6.41485 7.09687Z"
            fill="#FFFDE7" />
        <path
            d="M6.25598 11.442C6.39508 11.2938 6.38889 11.062 6.24216 10.9243C6.09542 10.7865 5.8637 10.7949 5.72459 10.943C5.58548 11.0912 5.59167 11.323 5.73841 11.4608C5.88515 11.5985 6.11687 11.5901 6.25598 11.442Z"
            fill="#82AEC0" />
        <path
            d="M5.72462 10.9441C5.85235 10.8023 6.09727 10.7672 6.26251 10.9031C6.30395 10.9371 6.33808 10.9791 6.36285 11.0267C6.38762 11.0742 6.40252 11.1262 6.40665 11.1797C6.41485 11.2887 6.37384 11.4012 6.29884 11.4832C6.22266 11.5641 6.11251 11.6121 6.00352 11.6109C5.89337 11.6098 5.78907 11.5605 5.71876 11.4844C5.5711 11.3273 5.59102 11.0801 5.72462 10.9441ZM5.72462 10.9441C5.65899 11.0144 5.62384 11.1117 5.63204 11.2055C5.64024 11.2992 5.68829 11.3859 5.75743 11.4398C5.89923 11.5535 6.1043 11.5207 6.21212 11.4023C6.32462 11.2875 6.34454 11.0801 6.22149 10.9453C6.1629 10.8797 6.07384 10.8363 5.97891 10.8351C5.88634 10.8328 5.79141 10.8738 5.72462 10.9441Z"
            fill="#2F7889" />
        <path
            d="M6.1479 12.4296C6.2653 12.3046 6.26026 12.1091 6.13664 11.9931C6.01302 11.877 5.81764 11.8843 5.70024 12.0093C5.58284 12.1343 5.58788 12.3298 5.7115 12.4458C5.83512 12.5619 6.0305 12.5547 6.1479 12.4296Z"
            fill="#82AEC0" />
        <path
            d="M5.69999 12.0082C5.80781 11.8887 6.01406 11.8558 6.15703 11.9707C6.22617 12.0258 6.27539 12.1125 6.28359 12.2074C6.29179 12.3012 6.25664 12.3996 6.19101 12.4699C6.12539 12.5391 6.02929 12.5812 5.93554 12.5789C5.84062 12.5777 5.75156 12.5332 5.69179 12.4676C5.56757 12.3316 5.58749 12.123 5.69999 12.0082ZM5.69999 12.0082C5.64492 12.068 5.61562 12.15 5.62382 12.2285C5.63085 12.3082 5.67304 12.3785 5.73164 12.423C5.85117 12.5156 6.01874 12.4851 6.10546 12.3879C6.19687 12.2941 6.21679 12.1254 6.11718 12.0117C6.06914 11.9566 5.99531 11.918 5.91562 11.9168C5.83593 11.9156 5.75624 11.9496 5.69999 12.0082Z"
            fill="#2F7889" />
        <path
            d="M12.0469 2.99414L11.2969 2.19141L6.27069 7.31367C6.22147 7.36289 6.22851 7.44609 6.28593 7.5L7.07929 8.26172C7.14022 8.31328 7.22577 8.31328 7.2703 8.26055L12.0469 2.99414Z"
            fill="#F7CF92" />
        <path
            d="M11.1305 2.32617L11.0965 2.1914C11.0039 1.89843 11.175 1.82695 11.2488 1.79999C11.7223 1.6289 13.2902 0.998432 13.6301 0.911713C13.9219 0.837885 14.3613 0.86015 14.3953 1.29492C14.4058 1.43554 14.3027 1.49531 14.1668 1.52929C13.9418 1.58437 13.7965 1.57968 13.534 1.88437C13.3101 2.14335 12.9738 2.69648 12.825 2.95898C12.7758 3.04687 12.6832 3.10078 12.5801 3.10195L11.9988 3.04687L11.1305 2.32617Z"
            fill="#F7CF92" />
        <path
            d="M5.66837 7.56796C5.75157 7.58203 5.82423 7.60663 5.89805 7.63007C5.94493 7.68046 5.99532 7.72734 6.04337 7.77656L6.33516 8.06835L6.62696 8.36015L6.77344 8.50663C6.79688 8.58046 6.82149 8.65312 6.83672 8.73515C6.75469 8.71992 6.68204 8.69531 6.60821 8.67187L6.46172 8.52538L6.16993 8.23359L5.87813 7.94179C5.82891 7.89374 5.78204 7.84335 5.73165 7.79648C5.70704 7.72499 5.68243 7.65117 5.66837 7.56796Z"
            fill="#82AEC0" />
        <path
            d="M4.76602 8.4715C4.84922 8.48556 4.92188 8.51017 4.99571 8.53361C5.04258 8.584 5.09297 8.63087 5.14102 8.68009L5.43282 8.97189L5.72462 9.26368L5.8711 9.41017C5.89454 9.484 5.91915 9.55665 5.93438 9.63868C5.85235 9.62345 5.77969 9.59884 5.70587 9.5754L5.55938 9.42892L5.26758 9.13712L4.97579 8.84532C4.92657 8.79728 4.87969 8.74689 4.8293 8.70001C4.80352 8.62736 4.78008 8.5547 4.76602 8.4715Z"
            fill="#82AEC0" />
        <path
            d="M4.29374 9.14413C4.36874 9.18281 4.43085 9.22734 4.49413 9.27304C4.52343 9.33515 4.55741 9.39609 4.58788 9.45702L4.77773 9.82382L4.96757 10.1906L5.06249 10.3734C5.06249 10.4508 5.06366 10.5281 5.05312 10.6102C4.97929 10.5703 4.91718 10.5258 4.8539 10.4812L4.75898 10.2984L4.5703 9.93163L4.38046 9.56484C4.34882 9.5039 4.31835 9.44179 4.28437 9.38203C4.2832 9.30468 4.28202 9.22734 4.29374 9.14413Z"
            fill="#82AEC0" />
        <path
            d="M2.5336 10.5773C2.50196 10.6113 2.49375 10.6559 2.51602 10.6769L4.07227 12.109C4.09453 12.1301 4.13907 12.1184 4.17071 12.0844L4.69805 11.5336C4.72969 11.4996 4.73789 11.4551 4.71563 11.434L3.15938 10.0019C3.13711 9.98085 3.09258 9.99257 3.06094 10.0266L2.5336 10.5773Z"
            fill="#2F7889" />
        <path
            d="M4.74611 6.00586C4.65119 5.98828 4.59962 5.89922 4.63712 5.67891C4.74142 5.05781 5.15158 4.48711 5.72345 4.22109C5.92384 4.12734 6.11017 4.14375 6.14884 4.38516C6.16877 4.51289 6.09962 4.63711 5.9133 4.74492C5.49611 4.98867 5.09884 5.34492 4.97814 5.8125C4.93361 5.98125 4.85158 6.02461 4.74611 6.00586Z"
            fill="#FF7043" />
        <path
            d="M11.4142 1.68787C11.4734 1.60529 11.4271 1.47078 11.3109 1.38745C11.1946 1.30411 11.0524 1.3035 10.9932 1.38608C10.934 1.46867 10.9803 1.60317 11.0965 1.68651C11.2128 1.76984 11.355 1.77045 11.4142 1.68787Z"
            fill="#82AEC0" />
        <path
            d="M11.8837 1.51648C11.9429 1.4339 11.8967 1.2994 11.7804 1.21606C11.6642 1.13272 11.522 1.13211 11.4628 1.2147C11.4036 1.29728 11.4498 1.43178 11.566 1.51512C11.6823 1.59846 11.8245 1.59907 11.8837 1.51648Z"
            fill="#82AEC0" />
        <path
            d="M12.3528 1.34598C12.412 1.2634 12.3657 1.12889 12.2495 1.04556C12.1332 0.962222 11.991 0.961612 11.9318 1.0442C11.8726 1.12678 11.9188 1.26128 12.0351 1.34462C12.1513 1.42795 12.2935 1.42856 12.3528 1.34598Z"
            fill="#82AEC0" />
        <path
            d="M12.8223 1.17459C12.8815 1.09201 12.8353 0.957507 12.719 0.874171C12.6028 0.790835 12.4605 0.790225 12.4013 0.872808C12.3421 0.955392 12.3884 1.0899 12.5046 1.17323C12.6209 1.25657 12.7631 1.25718 12.8223 1.17459Z"
            fill="#82AEC0" />
        <path
            d="M13.2911 1.00418C13.3503 0.921601 13.3041 0.787097 13.1878 0.703761C13.0716 0.620425 12.9294 0.619815 12.8702 0.702398C12.811 0.784982 12.8572 0.919486 12.9735 1.00282C13.0897 1.08616 13.2319 1.08677 13.2911 1.00418Z"
            fill="#82AEC0" />
        <path
            d="M13.7617 0.833438C13.821 0.750855 13.7747 0.616351 13.6585 0.533015C13.5422 0.449679 13.4 0.449069 13.3408 0.531652C13.2816 0.614236 13.3278 0.74874 13.4441 0.832076C13.5603 0.915412 13.7025 0.916022 13.7617 0.833438Z"
            fill="#82AEC0" />
    </g>
    <defs>
        <clipPath id="clip0_4_167">
            <rect width="15" height="15" fill="white" />
        </clipPath>
    </defs>
</svg>