<svg width="12" height="12" viewBox="0 0 12 12" fill="none" xmlns="http://www.w3.org/2000/svg">
    <path
        d="M4.54497 4.88365C4.43413 4.63859 4.38444 4.35274 4.46912 4.09308C4.55378 3.8276 4.74341 3.61465 4.93304 3.41625C5.46097 2.88818 6.1116 2.5002 6.62795 1.96345C6.91382 1.66877 7.15009 1.31578 7.23175 0.910242C7.29887 0.612703 7.26681 0.306398 7.20557 0.0117188C7.47979 0.323883 7.57023 0.770227 7.49143 1.17284C7.40687 1.62499 7.1559 2.02465 6.86129 2.36888C6.62502 2.64607 6.35366 2.89111 6.07072 3.11871C5.74108 3.38419 5.41729 3.67006 5.21019 4.04348C5.03507 4.34684 4.99422 4.72027 5.11386 5.04994C5.30936 5.61586 5.7644 6.03598 6.01241 6.56981C5.73812 6.32766 5.46979 6.07678 5.21882 5.81135C4.95636 5.53127 4.70835 5.23376 4.54497 4.88365ZM6.03278 4.44019C5.98321 4.90406 6.22527 5.34164 6.51416 5.68591C6.65413 5.84051 6.77376 6.03014 6.77954 6.24605C6.78543 6.53475 6.62214 6.80325 6.41195 6.99279C6.46161 6.98702 6.49661 6.94322 6.53746 6.9199C6.85253 6.71859 7.15586 6.46479 7.31047 6.1177C7.41259 5.88138 7.38927 5.60128 7.25511 5.38245C7.09752 5.12573 6.89045 4.89818 6.76794 4.61815C6.70075 4.46063 6.67743 4.27685 6.73288 4.11056C6.80586 3.88596 6.96336 3.70214 7.12968 3.54169C7.58765 3.10706 8.14192 2.79771 8.6729 2.45937C8.0019 2.65188 7.3397 2.91738 6.77376 3.33459C6.4149 3.60298 6.0824 3.97636 6.03278 4.44019ZM9.22143 6.63403C9.53943 6.65156 9.85147 6.88491 9.90988 7.20584C9.96533 7.48299 9.83118 7.75718 9.65898 7.9672C9.37597 8.30559 8.99378 8.54777 8.60882 8.75491C8.5708 8.77814 8.53874 8.80734 8.50956 8.83948C9.01719 8.71109 9.52473 8.51864 9.93613 8.18895C10.1636 7.99931 10.3649 7.74834 10.4087 7.44788C10.4496 7.18828 10.3417 6.91988 10.1491 6.74777C9.91565 6.53473 9.58609 6.45602 9.27679 6.4969C9.09883 6.52022 8.9034 6.55814 8.7809 6.70692C8.92682 6.67784 9.06965 6.61943 9.22143 6.63403ZM2.88798 7.46829C3.27008 7.57041 3.66395 7.59961 4.05486 7.62588C4.40493 7.6492 4.75506 7.65509 5.10808 7.65213C6.01822 7.63763 6.93423 7.57629 7.8269 7.37794C7.91146 7.35755 8.00486 7.34295 8.08079 7.29045C8.22955 7.19412 8.39282 7.11825 8.55334 7.04241C7.8269 7.1591 7.09757 7.25838 6.36245 7.30502C5.61854 7.35169 4.86876 7.38087 4.12199 7.3313C3.90904 7.31091 3.6902 7.29916 3.49185 7.21744C3.44511 7.19705 3.38092 7.15629 3.40424 7.09493C3.44804 7.01616 3.53556 6.97828 3.6114 6.93743C3.93236 6.78572 4.2824 6.70116 4.62374 6.60197C4.03731 6.59316 3.45383 6.74191 2.91716 6.97242C2.79751 7.03081 2.66333 7.07745 2.5671 7.17666C2.52908 7.21741 2.52908 7.28756 2.57289 7.32248C2.66043 7.40126 2.77705 7.43625 2.88798 7.46829ZM7.61401 8.27063C7.10345 8.36107 6.58993 8.44575 6.07356 8.47193C5.50761 8.50985 4.94167 8.47772 4.38158 8.41941C4.27368 8.40481 4.1657 8.38734 4.06947 8.33777C4.01987 8.30857 3.9703 8.26193 3.97323 8.20057C3.97902 8.10434 4.06065 8.03728 4.11906 7.96723C3.93824 8.03142 3.75733 8.09845 3.60564 8.2182C3.54137 8.26779 3.47725 8.34649 3.49471 8.43401C3.52108 8.5361 3.62024 8.59737 3.70776 8.64401C3.92357 8.75494 4.16572 8.80446 4.40209 8.84824C5.00001 8.94457 5.60976 8.9475 6.21069 8.90656C6.84681 8.85699 7.47979 8.75201 8.09533 8.57109C7.92029 8.49239 7.75398 8.40185 7.61401 8.27063ZM4.40786 9.2801C4.2445 9.32674 4.07818 9.38222 3.94403 9.49003C3.87681 9.54255 3.82438 9.63309 3.85651 9.71768C3.89736 9.82559 3.99948 9.88988 4.09565 9.94514C4.34661 10.0823 4.62955 10.1464 4.90668 10.1961C5.53398 10.2952 6.17863 10.2807 6.80296 10.1699C7.17341 10.0998 7.54393 10.0006 7.88814 9.84607C7.66351 9.7527 7.44477 9.64763 7.23475 9.52514C6.87008 9.58931 6.50242 9.65646 6.12901 9.67978C5.63608 9.7177 5.13716 9.67685 4.64413 9.61561C4.52741 9.58934 4.38158 9.57769 4.30281 9.47555C4.26205 9.39087 4.35536 9.3296 4.40786 9.2801ZM8.39872 11.1558C8.8071 11.0714 9.2185 10.9749 9.59188 10.7854C9.7085 10.7182 9.85147 10.6452 9.88949 10.5053C9.90988 10.3711 9.76984 10.3011 9.67065 10.2456C9.7319 10.3158 9.77275 10.4178 9.71144 10.4994C9.60932 10.6366 9.43438 10.6891 9.27972 10.7416C8.7955 10.8787 8.29365 10.9342 7.79483 10.9896C6.47331 11.1092 5.14297 11.1384 3.82152 11.0275C3.37808 10.9808 2.92581 10.9312 2.50283 10.7737C2.4358 10.7445 2.33368 10.7153 2.33368 10.6249C2.35986 10.5462 2.4358 10.5023 2.50283 10.4644C2.80623 10.3099 3.14465 10.2252 3.48304 10.2048C3.38394 10.1464 3.26722 10.1406 3.15346 10.1436C2.87043 10.1523 2.5933 10.2252 2.32497 10.3158C2.09448 10.4002 1.85818 10.4936 1.67434 10.6629C1.60143 10.727 1.5344 10.8495 1.61015 10.9371C1.72686 11.0625 1.90778 11.0946 2.06811 11.1325C2.96666 11.2872 3.87681 11.3746 4.78712 11.4067C5.99488 11.4418 7.21136 11.3893 8.39872 11.1558ZM9.59481 11.3134C9.04633 11.4885 8.4775 11.5847 7.91148 11.6635C6.93423 11.786 5.94815 11.8239 4.96501 11.7948C4.367 11.7715 3.769 11.7306 3.17964 11.6314C3.31675 11.7247 3.48599 11.7539 3.64356 11.7977C4.30583 11.9377 4.98547 11.964 5.65942 11.9844C6.64825 12.0019 7.63724 11.964 8.61165 11.8093C9.07265 11.7278 9.53647 11.6285 9.95064 11.4126C10.1666 11.2988 10.3855 11.1237 10.4232 10.87C10.2045 11.1033 9.88949 11.2113 9.59481 11.3134Z"
        fill="black" />
</svg>