<svg width="15" height="14" viewBox="0 0 15 14" fill="none" xmlns="http://www.w3.org/2000/svg">
    <path
        d="M10.905 10.6969H9.32375V8.26C9.32375 7.679 9.31308 6.93087 8.50111 6.93087C7.67758 6.93087 7.55129 7.56437 7.55129 8.21712V10.6969H5.97004V5.68575H7.48815V6.37087H7.50949C7.81898 5.85112 8.39528 5.53962 9.00715 5.5615C10.6097 5.5615 10.9059 6.59837 10.9059 7.9485L10.905 10.696V10.6969ZM4.18601 5.00062C3.94311 4.99947 3.71047 4.90409 3.53863 4.73518C3.36679 4.56627 3.26961 4.33748 3.26821 4.0985C3.26821 3.60325 3.68264 3.1955 4.18601 3.1955C4.68938 3.1955 5.10293 3.60325 5.10382 4.0985C5.10382 4.59375 4.68938 5.00062 4.18601 5.00062ZM4.97664 10.6969H3.39361V5.68575H4.97664V10.6969ZM11.6921 1.75H2.59853C2.39234 1.74882 2.194 1.82775 2.04663 1.96964C1.89925 2.11152 1.81474 2.3049 1.81146 2.50775V11.4922C1.81474 11.6951 1.89925 11.8885 2.04663 12.0304C2.194 12.1722 2.39234 12.2512 2.59853 12.25H11.693C11.8996 12.2516 12.0986 12.173 12.2467 12.0311C12.3947 11.8892 12.4799 11.6956 12.4836 11.4922V2.50687C12.4798 2.30372 12.3946 2.11026 12.2465 1.96865C12.0985 1.82704 11.8995 1.74876 11.693 1.75087L11.6921 1.75Z"
        fill="#0A66C2" />
</svg>