<svg width="14" height="13" viewBox="0 0 14 13" fill="none" xmlns="http://www.w3.org/2000/svg">
<g clip-path="url(#clip0_4_112)">
<path d="M12.4819 3.52625C11.9317 2.86203 10.0014 1.64836 6.65575 1.64836C3.31015 1.64836 1.3798 2.86203 0.829594 3.52625C0.279391 4.19047 0.252552 4.96336 0.279391 5.51281C0.280424 5.54328 0.285585 5.58899 0.294875 5.6418C0.359909 6.00844 0.472427 6.27149 2.00019 6.27149C3.63015 6.27149 3.8108 5.87641 3.82112 5.58696C3.83764 5.11571 3.89442 4.4911 4.11016 4.35906C4.36513 4.20469 4.58294 3.65524 6.65678 3.62375C8.73062 3.65625 8.94843 4.20469 9.2034 4.35906C9.42018 4.4911 9.47592 5.11469 9.49244 5.58696C9.50276 5.87641 9.68341 6.27149 11.3134 6.27149C12.8401 6.27149 12.9537 6.00742 13.0187 5.6418C13.028 5.58899 13.0321 5.54328 13.0342 5.51281C13.0589 4.96336 13.0331 4.19149 12.4819 3.52625Z" fill="#C62828"/>
<path d="M11.3124 6.67875C10.3369 6.67875 9.21271 6.56703 9.18277 5.69968C9.18125 5.65972 9.18778 5.61985 9.20196 5.58237C9.21615 5.54488 9.23772 5.51053 9.26544 5.48128C9.29317 5.45202 9.32649 5.42844 9.36349 5.41189C9.4005 5.39534 9.44047 5.38615 9.4811 5.38484C9.56301 5.38231 9.64262 5.41175 9.70256 5.46673C9.76251 5.52171 9.79793 5.59778 9.8011 5.67836C9.80523 5.79617 9.96111 6.06937 11.3124 6.06937C12.9155 6.06937 13.0393 5.45187 13.0393 5.45187C13.1415 5.69968 13.3779 6.59039 11.3124 6.67875Z" fill="#912221"/>
<path d="M1.99813 6.57718C2.97363 6.57718 4.09778 6.46546 4.12772 5.59812C4.12923 5.55815 4.12271 5.51828 4.10852 5.4808C4.09434 5.44332 4.07276 5.40897 4.04504 5.37971C4.01732 5.35046 3.984 5.32688 3.94699 5.31033C3.90998 5.29378 3.87002 5.28459 3.82939 5.28328C3.74747 5.28075 3.66787 5.31019 3.60792 5.36517C3.54798 5.42015 3.51256 5.49622 3.50938 5.57679C3.50525 5.69461 3.34938 5.96781 1.99813 5.96781C0.395011 5.96781 0.271138 5.35031 0.271138 5.35031C0.172039 5.57578 -0.0674484 6.48882 1.99813 6.57718Z" fill="#912221"/>
<path d="M10.1696 3.05906C9.62665 2.83766 8.53966 2.53703 6.65576 2.53703C4.77186 2.53703 3.68591 2.83766 3.1419 3.05906C2.96331 3.13117 2.9468 3.37086 3.11196 3.46938C3.42061 3.65422 3.80462 4.00664 3.90372 4.64953C3.90681 4.67086 3.91301 4.69016 3.9192 4.70946C3.96256 4.54289 4.02243 4.41289 4.10811 4.3611C4.36308 4.20672 4.58089 3.65727 6.65473 3.62578C8.72857 3.65828 8.94638 4.20672 9.20135 4.3611C9.28703 4.41289 9.3469 4.54289 9.39025 4.70946C9.39645 4.69016 9.40264 4.67086 9.40574 4.64953C9.50484 4.00766 9.88884 3.65422 10.1975 3.46938C10.3637 3.37086 10.3482 3.13117 10.1696 3.05906Z" fill="#912221"/>
<path d="M12.389 4.70844C12.1774 4.19962 11.9967 3.98735 11.3959 3.75376C11.1792 3.66946 11.0491 3.51305 11.1028 3.38305C11.1565 3.25305 11.2968 3.20735 11.5209 3.26524C12.1495 3.42571 12.6285 4.00563 12.6295 4.6861C12.6285 5.00297 12.4716 4.90649 12.389 4.70844Z" fill="#F44336"/>
<path d="M1.12378 3.68875C1.16301 3.81774 1.41901 3.71008 1.72973 3.68571C2.16018 3.65219 2.28715 3.78422 2.47812 3.98125C2.63813 4.1468 2.86729 4.14985 2.95194 4.03711C3.03762 3.92438 2.98704 3.79946 2.83942 3.62375C2.73 3.49274 2.25825 3.18094 1.56146 3.36578C1.40353 3.40946 1.08249 3.55266 1.12378 3.68875Z" fill="#F44336"/>
<path d="M1.99918 9.71039V11.8727C1.99918 12.2708 2.34808 12.5938 2.77751 12.5938H10.534C10.9634 12.5938 11.3124 12.2708 11.3124 11.8727V9.66063L1.99918 9.71039Z" fill="#C62828"/>
<path d="M11.2896 9.34679C11.2896 9.34679 10.4834 5.65804 10.3534 5.00601C10.2233 4.35398 9.99724 4.16202 9.6153 4.15593C9.35826 4.15187 9.08677 3.9782 9.04135 3.6664C8.99593 3.35867 8.98561 3.17788 8.96703 3.04179C8.94845 2.9057 8.95361 2.70663 8.75541 2.70663H8.36212C8.18663 2.70663 8.17218 2.74015 8.14328 2.9839C8.11437 3.22867 8.07514 3.69992 7.97811 3.93554C7.8945 4.13765 7.67359 4.15593 7.54765 4.15593H5.76285C5.63794 4.15593 5.416 4.13765 5.33239 3.93554C5.23536 3.69992 5.1951 3.22765 5.16723 2.9839C5.13832 2.73913 5.12387 2.70663 4.94838 2.70663H4.55509C4.35792 2.70663 4.36308 2.9057 4.34347 3.04179C4.32489 3.17788 4.31457 3.35867 4.26915 3.6664C4.2227 3.9782 3.95224 4.15187 3.6952 4.15593C3.31326 4.16202 3.08719 4.35398 2.95713 5.00601C2.82706 5.65804 2.02085 9.34679 2.02085 9.34679C1.91246 10.0648 2.16537 10.3655 3.4743 10.3655H9.83517C11.1462 10.3655 11.3991 10.0648 11.2896 9.34679Z" fill="#FF4638"/>
<path d="M9.18482 5.97466L8.80082 5.35818L7.95022 5.21396L7.64054 5.39576C7.56828 5.43841 7.47847 5.43536 7.40828 5.39068L7.24828 5.28708L6.07045 5.29622L5.94761 5.38357C5.87638 5.43435 5.78038 5.4374 5.70606 5.39271L5.42322 5.22208L4.12668 5.97466L3.66525 8.56451L3.68693 9.03271C3.69106 9.12818 3.77158 9.20333 3.86861 9.20333H9.44393C9.54096 9.20333 9.62148 9.12818 9.62561 9.03271L9.64728 8.56451L9.18482 5.97466Z" fill="#4E342E"/>
<path d="M8.167 7.35922H9.23128C9.33141 7.35922 9.4078 7.26985 9.39025 7.17336L9.29218 6.61985C9.27876 6.54367 9.21167 6.48883 9.13321 6.48883H8.10094C8.00391 6.48883 7.92958 6.57211 7.94094 6.66656L8.00803 7.22008C8.01629 7.2993 8.08546 7.35922 8.167 7.35922Z" fill="#F5F5F5"/>
<path d="M6.17987 6.13438H7.14505C7.23692 6.13438 7.31125 6.05821 7.30609 5.96782L7.27408 5.36352C7.27197 5.32293 7.25407 5.28469 7.2241 5.25671C7.19412 5.22873 7.15437 5.21316 7.11305 5.21321H6.21187C6.1262 5.21321 6.05497 5.27923 6.05084 5.36352L6.01884 5.96782C6.01368 6.05821 6.088 6.13438 6.17987 6.13438Z" fill="#F5F5F5"/>
<path d="M7.24933 7.81726H6.07563C5.98995 7.81726 5.91872 7.88328 5.91459 7.96757L5.88569 8.52109C5.88053 8.61148 5.95485 8.68765 6.04673 8.68765H7.27823C7.3701 8.68765 7.44442 8.61148 7.43926 8.52109L7.41036 7.96757C7.40824 7.92698 7.39034 7.88874 7.36037 7.86076C7.3304 7.83278 7.29064 7.81721 7.24933 7.81726Z" fill="#F5F5F5"/>
<path d="M6.11793 7.35922H7.20594C7.29782 7.35922 7.37214 7.28305 7.36698 7.19266L7.33808 6.63914C7.33596 6.59855 7.31806 6.56031 7.28809 6.53233C7.25811 6.50435 7.21836 6.48878 7.17704 6.48883H6.14683C6.06115 6.48883 5.98993 6.55485 5.9858 6.63914L5.95689 7.19266C5.95276 7.28305 6.02605 7.35922 6.11793 7.35922Z" fill="#F5F5F5"/>
<path d="M5.05662 7.81726H3.93351C3.85505 7.81726 3.78796 7.87312 3.77454 7.94828L3.67647 8.50179C3.65892 8.59929 3.73531 8.68765 3.83544 8.68765H4.99055C5.0721 8.68765 5.14127 8.62773 5.15056 8.5475L5.21766 7.99398C5.22798 7.90054 5.15365 7.81726 5.05662 7.81726Z" fill="#F5F5F5"/>
<path d="M4.08023 7.35921H5.15689C5.23844 7.35921 5.3076 7.29929 5.31689 7.21906L5.38399 6.66554C5.39535 6.57109 5.32102 6.48781 5.22399 6.48781H4.17933C4.10088 6.48781 4.03378 6.54367 4.02036 6.61882L3.92229 7.17234C3.90371 7.26984 3.9801 7.35921 4.08023 7.35921Z" fill="#F5F5F5"/>
<path d="M8.02454 6.13438H9.02172C9.12185 6.13438 9.19824 6.04501 9.18069 5.94852L9.07333 5.34423C9.05991 5.26805 8.99282 5.21321 8.91436 5.21321H7.95125C7.85422 5.21321 7.77989 5.29649 7.79125 5.39095L7.86454 5.99524C7.87383 6.07446 7.94299 6.13438 8.02454 6.13438Z" fill="#F5F5F5"/>
<path d="M5.46038 5.99422L5.53368 5.38992C5.54503 5.29547 5.47071 5.21219 5.37367 5.21219H4.39714C4.31869 5.21219 4.25159 5.26805 4.23817 5.3432L4.13082 5.9475C4.11327 6.045 4.18965 6.13336 4.28979 6.13336H5.30038C5.38193 6.13438 5.45109 6.07445 5.46038 5.99422Z" fill="#F5F5F5"/>
<path d="M8.10712 7.995L8.17422 8.54851C8.18351 8.62875 8.25267 8.68867 8.33422 8.68867H9.47592C9.57605 8.68867 9.65244 8.59929 9.63489 8.50281L9.53682 7.94929C9.5234 7.87312 9.45631 7.81828 9.37785 7.81828H8.26712C8.17112 7.81726 8.09577 7.90054 8.10712 7.995Z" fill="#F5F5F5"/>
</g>
<defs>
<clipPath id="clip0_4_112">
<rect width="13.2131" height="13" fill="white" transform="translate(0.0491943)"/>
</clipPath>
</defs>
</svg>
