<svg width="11" height="11" viewBox="0 0 11 11" fill="none" xmlns="http://www.w3.org/2000/svg">
    <path
        d="M5.4603 0C2.66784 2.00278e-07 2.84222 1.21732 2.84222 1.21732L2.84533 2.47845H5.51012V2.8571H1.78689C1.78689 2.8571 0 2.65339 0 5.48574C-1.99235e-07 8.31813 1.55964 8.21766 1.55964 8.21766H2.49044V6.90336C2.49044 6.90336 2.44027 5.33555 4.02518 5.33555C5.61009 5.33555 6.66818 5.33555 6.66818 5.33555C6.66818 5.33555 8.15308 5.35966 8.15308 3.89291C8.15308 2.42615 8.15308 1.46767 8.15308 1.46767C8.15308 1.46767 8.37853 0 5.4603 0ZM3.99094 0.848056C4.25606 0.848056 4.47035 1.06346 4.47035 1.32998C4.47035 1.59649 4.25606 1.81189 3.99094 1.81189C3.72581 1.81189 3.51153 1.59649 3.51153 1.32998C3.51153 1.06346 3.72581 0.848056 3.99094 0.848056Z"
        fill="black" />
    <path
        d="M5.53968 10.9999C8.33214 10.9999 8.15775 9.78258 8.15775 9.78258L8.15463 8.52144H5.48986V8.14281H9.21305C9.21305 8.14281 11 8.34654 11 5.51416C11 2.68179 9.44034 2.78223 9.44034 2.78223H8.50952V4.09656C8.50952 4.09656 8.5597 5.66435 6.9748 5.66435C5.38985 5.66435 4.3318 5.66435 4.3318 5.66435C4.3318 5.66435 2.84687 5.64024 2.84687 7.10699C2.84687 8.57373 2.84687 9.53224 2.84687 9.53224C2.84687 9.53224 2.62142 10.9999 5.53968 10.9999ZM7.00904 10.1519C6.74389 10.1519 6.52962 9.93644 6.52962 9.66992C6.52962 9.4034 6.74389 9.18803 7.00904 9.18803C7.27413 9.18803 7.48845 9.4034 7.48845 9.66992C7.48845 9.93644 7.27413 10.1519 7.00904 10.1519Z"
        fill="black" />
</svg>