<svg width="12" height="12" viewBox="0 0 12 12" fill="none" xmlns="http://www.w3.org/2000/svg">
    <g clip-path="url(#clip0_5_261)">
        <path
            d="M7.06755 5.98844C7.06755 6.57999 6.58799 7.05955 5.99643 7.05955C5.40488 7.05955 4.92532 6.57999 4.92532 5.98844C4.92532 5.39688 5.40488 4.91733 5.99643 4.91733C6.58799 4.91733 7.06755 5.39688 7.06755 5.98844Z"
            fill="black" />
        <path
            d="M5.99599 8.44177C5.90666 8.44399 5.80133 8.44533 5.69555 8.44533C4.44621 8.44533 3.24133 8.25644 2.10755 7.90577L2.19333 7.92844C1.59288 7.73466 1.07244 7.44888 0.619548 7.08266L0.628881 7.08977C0.278214 6.83599 0.0422145 6.4431 0.00221446 5.99333L0.00177002 5.98755C0.00177002 5.27911 0.778214 4.58577 2.08221 4.13333C3.19866 3.76577 4.48355 3.55377 5.81777 3.55377C5.87955 3.55377 5.94133 3.55422 6.0031 3.55511H5.99377C6.04533 3.55422 6.10577 3.55377 6.16666 3.55377C7.48444 3.55377 8.75333 3.76222 9.94266 4.14799L9.85599 4.12355C10.436 4.31199 10.9395 4.58399 11.3818 4.92977L11.3711 4.92177C11.7155 5.16444 11.948 5.54577 11.9871 5.98266L11.9875 5.98844C11.9875 6.72444 11.1191 7.46933 9.71955 7.93244C8.66932 8.25644 7.46177 8.4431 6.21066 8.4431C6.1351 8.4431 6.05999 8.44222 5.98488 8.44088H5.99599V8.44177ZM5.99599 4.06844C5.94888 4.06755 5.89288 4.06755 5.83688 4.06755C4.55644 4.06755 3.3231 4.26844 2.16621 4.64044L2.2511 4.61688C1.05199 5.0351 0.514214 5.60711 0.514214 5.98888C0.514214 6.38577 1.09244 7.0111 2.35999 7.44399C3.35955 7.75377 4.50844 7.93244 5.6991 7.93244C5.80355 7.93244 5.90755 7.9311 6.0111 7.92844L5.99599 7.92888C6.06088 7.93022 6.13733 7.9311 6.21377 7.9311C7.40666 7.9311 8.55777 7.75333 9.64266 7.4231L9.55955 7.44488C10.8751 7.00755 11.4795 6.38222 11.4795 5.9871C11.4342 5.70355 11.2742 5.46444 11.0502 5.31377L11.0467 5.31155C10.6618 5.01199 10.2129 4.77066 9.72666 4.61199L9.69555 4.60311C8.6431 4.26266 7.43199 4.06622 6.17555 4.06622C6.11244 4.06622 6.04977 4.06666 5.9871 4.06755H5.99644L5.99599 4.06844Z"
            fill="black" />
        <path
            d="M3.56578 11.3271C3.55867 11.3271 3.55023 11.3276 3.54223 11.3276C3.34089 11.3276 3.15201 11.2747 2.98889 11.1822L2.99467 11.1853C2.38223 10.8298 2.16889 9.81111 2.42578 8.456C2.73556 7.06578 3.23778 5.83644 3.91201 4.72267L3.88134 4.77778C4.54756 3.59778 5.35245 2.58844 6.29245 1.72356L6.30134 1.71556C6.71156 1.34044 7.19156 1.03244 7.71778 0.814222L7.75023 0.802222C7.93112 0.715111 8.14356 0.664444 8.368 0.664444C8.59067 0.664444 8.80178 0.714666 8.99023 0.804L8.98134 0.800444C9.61912 1.16756 9.83067 2.29378 9.53156 3.73644C9.21156 5.05511 8.72356 6.21644 8.08178 7.27378L8.11289 7.21911C7.46756 8.388 6.68667 9.38889 5.77245 10.2498L5.76623 10.2556C5.34045 10.6453 4.84045 10.9622 4.29023 11.1809L4.25734 11.1924C4.05289 11.2729 3.81645 11.3222 3.56889 11.328H3.56623L3.56578 11.3271ZM4.10134 4.90622L4.32312 5.03422C3.70934 6.04755 3.22756 7.22355 2.94267 8.47422L2.92756 8.55422C2.69067 9.80266 2.91912 10.5533 3.24756 10.7436C3.33245 10.7889 3.43289 10.8151 3.53956 10.8151C3.54845 10.8151 3.55778 10.8151 3.56667 10.8147H3.56534C3.98978 10.8147 4.65778 10.5458 5.43023 9.87155C6.30845 9.04178 7.05423 8.08355 7.64001 7.02533L7.67023 6.96533C8.256 6.00711 8.72401 4.89733 9.01467 3.71778L9.03156 3.63689C9.31112 2.27778 9.06978 1.44578 8.72667 1.24667C8.62089 1.20489 8.49823 1.18089 8.37023 1.18089C8.20845 1.18089 8.05556 1.21956 7.92045 1.28756L7.92623 1.28489C7.42934 1.49156 7.00267 1.76756 6.63423 2.10533L6.63734 2.10267C5.73023 2.93867 4.96089 3.90578 4.35467 4.97733L4.32401 5.036L4.10134 4.90622Z"
            fill="black" />
        <path
            d="M8.42666 11.3333C7.84621 11.3333 7.1111 10.9836 6.34221 10.3218C5.37555 9.44045 4.55688 8.41867 3.91377 7.28445L3.88177 7.22356C3.24621 6.17956 2.74799 4.968 2.45288 3.67912L2.43688 3.59689C2.36488 3.28178 2.32355 2.92045 2.32355 2.54934C2.32355 2.31512 2.33999 2.08534 2.37155 1.86L2.36844 1.88578C2.40621 1.44223 2.63866 1.06 2.97821 0.81956L2.98266 0.816449C3.61821 0.44756 4.70044 0.827116 5.80133 1.80667C6.69999 2.65734 7.4671 3.63467 8.07599 4.71334L8.10799 4.77467C8.74266 5.79556 9.24444 6.97956 9.54888 8.24045L9.56577 8.32312C9.63821 8.63823 9.67999 9.00045 9.67999 9.37201C9.67999 9.62845 9.66044 9.88001 9.62221 10.1258L9.62577 10.0982C9.57999 10.5525 9.33955 10.9431 8.99066 11.1898L8.98577 11.1929C8.8311 11.2813 8.64621 11.3333 8.44932 11.3333C8.44132 11.3333 8.43333 11.3333 8.42533 11.3329L8.42666 11.3333ZM4.32533 6.96756C4.97333 8.11023 5.7551 9.08801 6.66799 9.92578L6.67688 9.93378C7.63955 10.7618 8.4031 10.9409 8.73377 10.7489C9.07732 10.5507 9.32888 9.73734 9.06888 8.42312C8.75688 7.13867 8.27466 6.00801 7.63821 4.98267L7.6671 5.03245C7.05421 3.94089 6.32177 3.00489 5.46799 2.19512L5.46266 2.19023C4.42533 1.26845 3.58488 1.06134 3.24133 1.25956C3.0311 1.43067 2.89288 1.68267 2.87466 1.96756V1.97067C2.85021 2.144 2.83644 2.344 2.83644 2.54756C2.83644 2.884 2.87466 3.21112 2.94666 3.52578L2.94088 3.49645C3.23999 4.80845 3.71732 5.96712 4.3551 7.01823L4.32577 6.96623L4.32533 6.96756Z"
            fill="black" />
    </g>
    <defs>
        <clipPath id="clip0_5_261">
            <rect width="12" height="12" fill="white" />
        </clipPath>
    </defs>
</svg>