<svg width="15" height="15" viewBox="0 0 15 15" fill="none" xmlns="http://www.w3.org/2000/svg">
    <path
        d="M5.07422 11.1223C5.42227 10.5961 5.97539 10.4496 6.39961 10.6301C7.04883 10.9055 7.15078 11.134 7.15078 11.134C6.97734 11.3965 5.87227 12.9844 5.87227 12.9844C5.87227 12.9844 5.41172 12.7805 5.13867 12.5344C4.79766 12.2262 4.72617 11.6484 5.07422 11.1223Z"
        fill="#F44336" />
    <path
        d="M4.93829 11.3766C4.93829 11.3766 4.88908 11.6848 5.10119 11.7879C5.44572 11.9555 5.63439 11.6203 5.63439 11.6203C5.63439 11.6203 5.89103 11.209 6.3504 11.0438C6.99611 10.8106 7.23283 11.2559 7.23283 11.2559C7.23283 11.2559 7.06173 10.725 6.30001 10.5961C6.08556 10.5598 5.61681 10.7133 5.47501 10.7953C5.01798 11.059 4.93829 11.3766 4.93829 11.3766Z"
        fill="#C62828" />
    <path
        d="M7.0898 12.4363C7.43795 11.91 7.40862 11.2772 7.02428 11.023C6.63995 10.7687 6.04616 10.9893 5.69801 11.5156C5.34986 12.0419 5.37919 12.6746 5.76352 12.9289C6.14785 13.1831 6.74165 12.9626 7.0898 12.4363Z"
        fill="#FF7555" />
    <path
        d="M6.22264 12.1816C6.31522 12.0621 6.39022 11.9801 6.47577 12.0996C6.51209 12.157 6.54725 12.2426 6.61756 12.2566C6.83085 12.3012 6.89647 12.0129 6.87655 11.8652C6.82499 11.516 6.40663 11.5524 6.21678 11.857C6.10663 12.0234 6.11835 12.2391 6.1617 12.3399C6.1617 12.341 6.20389 12.2098 6.22264 12.1816Z"
        fill="#C62828" />
    <path
        d="M2.0379 9.69961C2.38595 9.17344 2.93907 9.02696 3.36329 9.20743C4.01251 9.48282 4.11447 9.71133 4.11447 9.71133C3.94103 9.97383 2.83595 11.5617 2.83595 11.5617C2.83595 11.5617 2.3754 11.3578 2.10236 11.1117C1.76134 10.8035 1.68986 10.2258 2.0379 9.69961Z"
        fill="#F44336" />
    <path
        d="M4.05418 11.0132C4.40233 10.4869 4.373 9.85419 3.98867 9.59995C3.60434 9.34571 3.01054 9.56626 2.66239 10.0926C2.31424 10.6189 2.34358 11.2516 2.72791 11.5058C3.11224 11.7601 3.70603 11.5395 4.05418 11.0132Z"
        fill="#C62828" />
    <path
        d="M11.768 7.82225C12.1172 7.29725 12.6715 7.15311 13.0957 7.33475C13.7438 7.61249 13.8457 7.84217 13.8457 7.84217C13.6711 8.10467 12.5613 9.68788 12.5613 9.68788C12.5613 9.68788 12.1008 9.4828 11.8289 9.23553C11.4879 8.92499 11.4188 8.34725 11.768 7.82225Z"
        fill="#F44336" />
    <path
        d="M11.632 8.07657C11.632 8.07657 11.5816 8.38477 11.7937 8.48789C12.1383 8.65664 12.3281 8.32149 12.3281 8.32149C12.3281 8.32149 12.6211 7.86914 13.0863 7.71797C13.6805 7.52461 13.9289 7.96172 13.9289 7.96172C13.9289 7.96172 13.7555 7.52344 13.0418 7.32891C12.5918 7.20586 12.1805 7.42383 12.0668 7.51524C11.652 7.84453 11.632 8.07657 11.632 8.07657Z"
        fill="#C62828" />
    <path
        d="M13.7792 9.14089C14.1291 8.61576 14.1018 7.98291 13.7184 7.72739C13.3349 7.47187 12.7404 7.69044 12.3905 8.21557C12.0405 8.74071 12.0678 9.37355 12.4513 9.62907C12.8347 9.88459 13.4293 9.66602 13.7792 9.14089Z"
        fill="#FF7555" />
    <path
        d="M12.9152 8.90859C12.9773 8.8371 13.0711 8.71757 13.1566 8.83828C13.193 8.8957 13.2375 8.95312 13.3078 8.9625C13.5293 8.99296 13.5879 8.71992 13.568 8.57109C13.5176 8.22187 13.0992 8.25703 12.9082 8.56054C12.798 8.72578 12.8086 8.93554 12.8508 9.04335C12.8508 9.04335 12.8754 8.95546 12.9152 8.90859Z"
        fill="#C62828" />
    <path
        d="M14.5324 4.67462C14.1199 3.4793 13.3734 3.3293 13.0805 3.22501C13.0805 3.22501 13.6055 3.67266 13.8457 4.21641C14.1551 4.91954 14.1375 5.80079 13.466 6.27657L4.62538 10.4133C2.56522 10.9184 0.384366 8.85118 0.384366 8.85118C0.312881 9.32579 0.142959 10.2082 1.8996 10.8621C3.47812 11.4492 5.04491 11.318 5.71171 10.984L13.7051 7.16485C14.4949 6.71368 14.8699 5.65079 14.5324 4.67462Z"
        fill="#DDB98C" />
    <path
        d="M14.2371 4.27266C13.8246 3.07735 12.45 3.0293 11.6684 3.22735C11.0191 3.39258 10.2856 3.99727 9.74532 4.45079C9.45469 4.69454 8.99532 4.9043 8.99532 4.9043L2.36485 8.07657C2.36485 8.07657 2.17266 8.15743 1.84922 8.16563C1.51875 8.17383 0.569536 8.12344 0.414849 8.68829C0.276567 9.19571 0.49102 9.86954 2.03086 10.4508C3.60704 11.0461 4.74961 10.916 5.41758 10.5832L13.4109 6.76407C14.1996 6.3129 14.5746 5.25001 14.2371 4.27266Z"
        fill="#424242" />
    <path
        d="M4.69222 9.56965C4.70668 9.44102 4.57867 9.32104 4.4063 9.30166C4.23393 9.28228 4.08248 9.37085 4.06802 9.49948C4.05356 9.62811 4.18157 9.7481 4.35394 9.76748C4.5263 9.78685 4.67776 9.69828 4.69222 9.56965Z"
        fill="#757575" />
    <path
        d="M3.60588 8.92054C3.62034 8.79191 3.49233 8.67193 3.31997 8.65255C3.1476 8.63317 2.99615 8.72174 2.98169 8.85037C2.96723 8.97901 3.09524 9.09899 3.2676 9.11837C3.43997 9.13774 3.59142 9.04917 3.60588 8.92054Z"
        fill="#757575" />
    <path
        d="M5.80336 9.04734C5.81782 8.91871 5.68981 8.79873 5.51745 8.77935C5.34508 8.75997 5.19363 8.84854 5.17917 8.97718C5.16471 9.10581 5.29272 9.22579 5.46508 9.24517C5.63745 9.26454 5.7889 9.17598 5.80336 9.04734Z"
        fill="#757575" />
    <path
        d="M4.7169 8.39939C4.73136 8.27076 4.60336 8.15078 4.43099 8.1314C4.25862 8.11203 4.10717 8.20059 4.09271 8.32923C4.07825 8.45786 4.20626 8.57784 4.37863 8.59722C4.55099 8.61659 4.70244 8.52803 4.7169 8.39939Z"
        fill="#757575" />
    <path
        d="M10.7209 6.62773C10.7354 6.4991 10.6074 6.37911 10.435 6.35973C10.2626 6.34036 10.1112 6.42893 10.0967 6.55756C10.0822 6.68619 10.2103 6.80617 10.3826 6.82555C10.555 6.84493 10.7064 6.75636 10.7209 6.62773Z"
        fill="#757575" />
    <path
        d="M9.63448 5.97978C9.64894 5.85115 9.52093 5.73116 9.34856 5.71179C9.1762 5.69241 9.02474 5.78098 9.01028 5.90961C8.99582 6.03824 9.12383 6.15822 9.2962 6.1776C9.46856 6.19698 9.62002 6.10841 9.63448 5.97978Z"
        fill="#757575" />
    <path
        d="M11.8501 6.11561C11.8646 5.98698 11.7366 5.867 11.5642 5.84762C11.3919 5.82824 11.2404 5.91681 11.226 6.04544C11.2115 6.17407 11.3395 6.29406 11.5119 6.31344C11.6842 6.33281 11.8357 6.24424 11.8501 6.11561Z"
        fill="#757575" />
    <path
        d="M10.7637 5.46766C10.7782 5.33903 10.6502 5.21905 10.4778 5.19967C10.3054 5.18029 10.154 5.26886 10.1395 5.39749C10.1251 5.52613 10.2531 5.64611 10.4254 5.66549C10.5978 5.68486 10.7493 5.59629 10.7637 5.46766Z"
        fill="#757575" />
</svg>