<svg width="13" height="13" viewBox="0 0 13 13" fill="none" xmlns="http://www.w3.org/2000/svg">
<g clip-path="url(#clip0_4_233)">
<path d="M12.7996 2.52778C12.5493 2.0977 12.0889 1.80556 11.5556 1.80556H6.5V2.52778H12.7996ZM0 9.02778H13V9.75H0V9.02778ZM6.5 6.13889H13V6.86111H6.5V6.13889ZM6.5 4.69445H13V5.41667H6.5V4.69445ZM0 7.58333H13V8.30556H0V7.58333ZM1.44444 11.1944H11.5556C12.0889 11.1944 12.5493 10.9023 12.7996 10.4722H0.200417C0.450667 10.9023 0.911083 11.1944 1.44444 11.1944ZM6.5 3.25H13V3.97222H6.5V3.25Z" fill="#B22334"/>
<path d="M0.0245556 9.99519C0.0306944 10.0288 0.0375556 10.0624 0.0458611 10.0952C0.05525 10.1317 0.0668055 10.1667 0.0790833 10.2021C0.111222 10.2956 0.150222 10.3859 0.199333 10.4704L0.200417 10.4722H12.7996L12.8003 10.4708C12.8488 10.3856 12.8889 10.296 12.9202 10.2032C12.944 10.1354 12.9623 10.0659 12.9751 9.99519C12.9899 9.91574 13 9.83413 13 9.74999H0C0 9.83413 0.0101111 9.91538 0.0245556 9.99519ZM0 8.30555H13V9.02777H0V8.30555ZM0 6.8611V7.58333H13V6.8611H6.5H0ZM6.5 5.41666H13V6.13888H6.5V5.41666ZM6.5 3.97222H13V4.69444H6.5V3.97222ZM0.0462222 2.90477C0.05525 2.86794 0.0678889 2.83291 0.0794444 2.79752C0.0669041 2.8328 0.0558207 2.86858 0.0462222 2.90477ZM6.5 3.24999H13C13 3.16585 12.9899 3.08424 12.9751 3.00444C12.9624 2.9337 12.944 2.86413 12.9198 2.79644C12.8885 2.7032 12.8483 2.61323 12.7996 2.52777H6.5V3.24999Z" fill="#EEEEEE"/>
<path d="M6.5 1.80556H1.44444C1.06135 1.80556 0.693954 1.95774 0.423068 2.22863C0.152182 2.49951 0 2.86691 0 3.25L0 6.86111H6.5V1.80556Z" fill="#3C3B6E"/>
<path d="M0.722595 2.78994L0.945762 2.95208L0.86054 3.21388L1.08335 3.0521L1.30651 3.21388L1.22129 2.95208L1.44446 2.78994H1.16857L1.08335 2.52777L0.998484 2.78994H0.722595ZM1.44482 3.51216L1.66798 3.6743L1.58276 3.9361L1.80557 3.77433L2.02873 3.9361L1.94351 3.6743L2.16668 3.51216H1.89079L1.80557 3.24999L1.72071 3.51216H1.44482ZM2.88926 3.51216L3.11243 3.6743L3.02721 3.9361L3.25001 3.77433L3.47318 3.9361L3.38796 3.6743L3.61112 3.51216H3.33523L3.25001 3.24999L3.16515 3.51216H2.88926ZM4.33371 3.51216L4.55687 3.6743L4.47165 3.9361L4.69446 3.77433L4.91762 3.9361L4.8324 3.6743L5.05557 3.51216H4.77968L4.69446 3.24999L4.6096 3.51216H4.33371ZM1.44482 4.9566L1.66798 5.11874L1.58276 5.38055L1.80557 5.21877L2.02873 5.38055L1.94351 5.11874L2.16668 4.9566H1.89079L1.80557 4.69444L1.72071 4.9566H1.44482ZM2.88926 4.9566L3.11243 5.11874L3.02721 5.38055L3.25001 5.21877L3.47318 5.38055L3.38796 5.11874L3.61112 4.9566H3.33523L3.25001 4.69444L3.16515 4.9566H2.88926ZM4.33371 4.9566L4.55687 5.11874L4.47165 5.38055L4.69446 5.21877L4.91762 5.38055L4.8324 5.11874L5.05557 4.9566H4.77968L4.69446 4.69444L4.6096 4.9566H4.33371ZM2.16704 2.78994L2.39021 2.95208L2.30498 3.21388L2.52779 3.0521L2.75096 3.21388L2.66573 2.95208L2.8889 2.78994H2.61301L2.52779 2.52777L2.44293 2.78994H2.16704ZM3.61148 2.78994L3.83465 2.95208L3.74943 3.21388L3.97223 3.0521L4.1954 3.21388L4.11018 2.95208L4.33335 2.78994H4.05746L3.97223 2.52777L3.88737 2.78994H3.61148ZM5.05593 2.78994L5.2791 2.95208L5.19387 3.21388L5.41668 3.0521L5.63985 3.21388L5.55462 2.95208L5.77779 2.78994H5.5019L5.41668 2.52777L5.33182 2.78994H5.05593ZM0.722595 4.23438L0.945762 4.39652L0.86054 4.65833L1.08335 4.49655L1.30651 4.65833L1.22129 4.39652L1.44446 4.23438H1.16857L1.08335 3.97222L0.998484 4.23438H0.722595ZM2.30498 4.65833L2.52779 4.49655L2.75096 4.65833L2.66573 4.39652L2.8889 4.23438H2.61301L2.52779 3.97222L2.44293 4.23438H2.16704L2.39021 4.39652L2.30498 4.65833ZM3.61148 4.23438L3.83465 4.39652L3.74943 4.65833L3.97223 4.49655L4.1954 4.65833L4.11018 4.39652L4.33335 4.23438H4.05746L3.97223 3.97222L3.88737 4.23438H3.61148ZM5.05593 4.23438L5.2791 4.39652L5.19387 4.65833L5.41668 4.49655L5.63985 4.65833L5.55462 4.39652L5.77779 4.23438H5.5019L5.41668 3.97222L5.33182 4.23438H5.05593ZM0.722595 5.67883L0.945762 5.84097L0.86054 6.10277L1.08335 5.94099L1.30651 6.10277L1.22129 5.84097L1.44446 5.67883H1.16857L1.08335 5.41666L0.998484 5.67883H0.722595ZM2.30498 6.10277L2.52779 5.94099L2.75096 6.10277L2.66573 5.84097L2.8889 5.67883H2.61301L2.52779 5.41666L2.44293 5.67883H2.16704L2.39021 5.84097L2.30498 6.10277ZM3.61148 5.67883L3.83465 5.84097L3.74943 6.10277L3.97223 5.94099L4.1954 6.10277L4.11018 5.84097L4.33335 5.67883H4.05746L3.97223 5.41666L3.88737 5.67883H3.61148ZM5.05593 5.67883L5.2791 5.84097L5.19387 6.10277L5.41668 5.94099L5.63985 6.10277L5.55462 5.84097L5.77779 5.67883H5.5019L5.41668 5.41666L5.33182 5.67883H5.05593Z" fill="white"/>
</g>
<defs>
<clipPath id="clip0_4_233">
<rect width="13" height="13" fill="white"/>
</clipPath>
</defs>
</svg>
