<svg width="12" height="12" viewBox="0 0 12 12" fill="none" xmlns="http://www.w3.org/2000/svg">
    <g clip-path="url(#clip0_253_8)">
        <path
            d="M6 0C2.68629 0 0 2.68629 0 6C0 9.31371 2.68629 12 6 12C9.31371 12 12 9.31371 12 6C12 2.68629 9.31371 0 6 0ZM9.80332 3.42188H8.70956C8.58382 2.89423 8.42072 2.40907 8.22705 1.98014C8.59704 2.18583 8.9407 2.44413 9.24827 2.75173C9.45616 2.95962 9.64141 3.18408 9.80332 3.42188ZM10.5938 6C10.5938 6.40097 10.5424 6.79399 10.4434 7.17188H8.94263C8.98015 6.79284 9 6.40109 9 6C9 5.59891 8.98015 5.20716 8.94263 4.82812H10.4434C10.5424 5.20601 10.5938 5.59903 10.5938 6ZM6 10.5938C5.87813 10.5938 5.50669 10.3542 5.13647 9.61376C4.98312 9.30703 4.85152 8.95765 4.74384 8.57812H7.25613C7.14846 8.95763 7.01688 9.30703 6.86351 9.61376C6.49331 10.3542 6.12187 10.5938 6 10.5938ZM4.47218 7.17188C4.42889 6.79109 4.40625 6.39776 4.40625 6C4.40625 5.60224 4.42889 5.20891 4.47218 4.82812H7.52782C7.57111 5.20891 7.59375 5.60224 7.59375 6C7.59375 6.39776 7.57111 6.79109 7.52782 7.17188H4.47218ZM1.40625 6C1.40625 5.59903 1.4576 5.20601 1.55658 4.82812H3.05737C3.01985 5.20716 3 5.59891 3 6C3 6.40109 3.01985 6.79284 3.05737 7.17188H1.55658C1.4576 6.79399 1.40625 6.40097 1.40625 6ZM6 1.40625C6.12187 1.40625 6.49331 1.6458 6.86353 2.38624C7.01688 2.69297 7.14848 3.04235 7.25616 3.42188H4.74384C4.85152 3.04238 4.98309 2.69297 5.13647 2.38624C5.50669 1.6458 5.87813 1.40625 6 1.40625ZM3.77295 1.98014C3.57926 2.40907 3.41618 2.8942 3.29044 3.42188H2.19668C2.35861 3.18408 2.54384 2.95962 2.75173 2.75173C3.05932 2.44413 3.40296 2.18583 3.77295 1.98014ZM2.19668 8.57812H3.29044C3.41618 9.10577 3.57928 9.59093 3.77295 10.0199C3.40296 9.81417 3.0593 9.55587 2.75173 9.24827C2.54384 9.04038 2.35859 8.81592 2.19668 8.57812ZM8.22705 10.0199C8.42074 9.59093 8.58382 9.1058 8.70956 8.57812H9.80332C9.64139 8.81592 9.45616 9.04038 9.24827 9.24827C8.94068 9.55587 8.59704 9.81417 8.22705 10.0199Z"
            fill="#4765BD" stroke="#4765BD" stroke-width="0.125" />
    </g>
    <defs>
        <clipPath id="clip0_253_8">
            <rect width="12" height="12" fill="white" />
        </clipPath>
    </defs>
</svg>